<svg xmlns="http://www.w3.org/2000/svg" width="47" height="47" viewBox="0 0 47 47" fill="none"><path d="M14.3046 5.20656C15.0239 3.38275 17.6051 3.38277 18.3244 5.20658L20.5534 10.8584C20.773 11.4152 21.2138 11.856 21.7706 12.0756L27.4224 14.3046C29.2463 15.0239 29.2463 17.6051 27.4224 18.3244L21.7706 20.5534C21.2138 20.773 20.773 21.2139 20.5534 21.7707L18.3244 27.4224C17.6051 29.2464 15.0239 29.2464 14.3046 27.4224L12.0756 21.7707C11.856 21.2139 11.4152 20.773 10.8584 20.5534L5.20653 18.3244C3.38272 17.6051 3.38274 15.0239 5.20655 14.3046L10.8584 12.0756C11.4152 11.856 11.856 11.4152 12.0756 10.8584L14.3046 5.20656Z" fill="#FCE036"></path><path opacity="0.5" d="M32.4841 25.7032C32.8794 24.7012 34.2978 24.7012 34.6932 25.7032L36.4218 30.0865C36.5425 30.3926 36.7848 30.6348 37.0909 30.7556L41.4741 32.4841C42.4762 32.8795 42.4762 34.2979 41.4741 34.6933L37.0909 36.4219C36.7848 36.5426 36.5425 36.7848 36.4218 37.091L34.6932 41.4742C34.2978 42.4763 32.8794 42.4763 32.4841 41.4742L30.7555 37.091C30.6348 36.7848 30.3925 36.5426 30.0864 36.4219L25.7032 34.6933C24.7011 34.2979 24.7011 32.8795 25.7032 32.4841L30.0864 30.7556C30.3925 30.6348 30.6348 30.3926 30.7555 30.0865L32.4841 25.7032Z" fill="#084AF3"></path></svg>