<?xml version="1.0" encoding="UTF-8"?>
<svg xmlns="http://www.w3.org/2000/svg" xmlns:xlink="http://www.w3.org/1999/xlink" width="193pt" height="193pt" viewBox="0 0 193 193" version="1.1">
<g id="surface1">
<path style=" stroke:none;fill-rule:evenodd;fill:rgb(81.599426%,26.298523%,27.799988%);fill-opacity:1;" d="M 184.253906 160.292969 L 136.789063 160.292969 L 136.789063 108.671875 L 184.253906 108.671875 L 184.253906 160.292969 "/>
<path style=" stroke:none;fill-rule:evenodd;fill:rgb(100%,100%,100%);fill-opacity:1;" d="M 153.472656 102.542969 C 151.378906 103.472656 149.054688 103.886719 146.570313 103.886719 L 47.386719 103.800781 C 41.78125 103.371094 36.269531 98.742188 34.707031 93.207031 C 33.039063 87.675781 34.660156 81.957031 38.316406 77.925781 C 41.851563 74.285156 46.402344 72.761719 51.449219 73.332031 C 46.699219 70.097656 44.703125 64.746094 45.390625 59.007813 C 46.023438 54.019531 49.632813 49.160156 54.257813 47.175781 C 59.539063 44.796875 66.210938 46.085938 70.351563 50.089844 C 69.492188 47.175781 69.039063 42.980469 70.222656 39.980469 C 71.640625 35.25 76.238281 31.042969 80.90625 30.058594 C 87.148438 28.710938 93.085938 31.066406 96.671875 36.421875 C 97.351563 37.421875 97.757813 38.5625 98.289063 39.621094 C 100.085938 34.503906 105.265625 30.261719 110.519531 29.71875 C 115.953125 29.015625 121.082031 31.347656 124.488281 35.921875 C 127.140625 39.71875 128.050781 45.382813 126.335938 49.953125 L 126.535156 49.953125 C 130.476563 46.410156 136.441406 45.121094 141.515625 47.085938 C 146.363281 48.691406 150.480469 53.859375 151.136719 58.953125 C 151.871094 64.589844 149.945313 69.523438 145.683594 73.167969 C 152.148438 72.789063 158.289063 76.226563 160.941406 82.242188 C 163.265625 87.496094 162.585938 94.527344 158.644531 98.789063 C 157.058594 100.394531 155.359375 101.738281 153.464844 102.542969 L 153.472656 102.542969 "/>
<path style=" stroke:none;fill-rule:evenodd;fill:rgb(0%,53.69873%,81.199646%);fill-opacity:1;" d="M 142.964844 73.332031 L 106.28125 97.859375 L 118.636719 68.496094 L 124.496094 54.820313 C 126.867188 50.402344 131.34375 47.582031 136.222656 47.503906 C 140.890625 47.503906 145.035156 49.75 147.664063 53.785156 C 150.367188 57.820313 150.519531 64.414063 147.816406 68.496094 C 146.601563 70.410156 144.8125 72.113281 142.96875 73.332031 L 142.964844 73.332031 "/>
<path style=" stroke:none;fill-rule:evenodd;fill:rgb(39.199829%,37.298584%,66.699219%);fill-opacity:1;" d="M 124.699219 50.167969 L 106.558594 93.050781 L 105.746094 88.375 L 100.292969 53.222656 C 100.066406 51.074219 100.949219 49.269531 102.664063 48.078125 L 105.269531 46.527344 C 105.421875 45.988281 104.664063 45.808594 104.308594 45.621094 L 99.203125 45.574219 C 98.878906 40.503906 101.097656 35.910156 105.394531 33.136719 C 108.726563 30.96875 113.808594 30.398438 117.519531 32.15625 C 122.34375 34.121094 125.703125 39.269531 125.785156 44.511719 C 125.761719 46.449219 125.429688 48.441406 124.699219 50.179688 L 124.699219 50.167969 "/>
<path style=" stroke:none;fill-rule:evenodd;fill:rgb(81.599426%,26.298523%,27.799988%);fill-opacity:1;" d="M 89.859375 93.207031 L 72 50.21875 C 70.085938 45.617188 70.894531 39.566406 74.175781 35.847656 C 77.6875 31.941406 82.640625 30.289063 87.742188 31.605469 C 92.0625 32.667969 96.101563 36.800781 97.167969 41.21875 C 97.667969 42.878906 97.597656 44.871094 97.496094 46.679688 L 89.867188 93.207031 L 89.859375 93.207031 "/>
<path style=" stroke:none;fill-rule:evenodd;fill:rgb(95.298767%,43.499756%,12.89978%);fill-opacity:1;" d="M 51.683594 71.78125 C 48.019531 68.601563 46.382813 64.359375 46.910156 59.449219 C 47.441406 54.480469 51.359375 49.625 56.027344 48.128906 C 60.828125 46.628906 66.054688 47.816406 69.542969 51.414063 C 71.007813 52.808594 71.914063 54.464844 72.675781 56.171875 L 89.933594 97.945313 L 51.683594 71.789063 L 51.683594 71.78125 "/>
<path style=" stroke:none;fill-rule:evenodd;fill:rgb(99.198914%,72.499084%,7.499695%);fill-opacity:1;" d="M 47.765625 102.296875 C 42.992188 101.753906 39.316406 99.183594 37.070313 94.804688 C 34.800781 90.386719 35.386719 84.121094 38.445313 80.203125 C 41.773438 76.214844 46.589844 74.210938 51.445313 75.1875 C 53.425781 75.507813 55.078125 76.355469 56.644531 77.34375 L 93.777344 102.3125 L 47.765625 102.296875 "/>
<path style=" stroke:none;fill-rule:evenodd;fill:rgb(6.698608%,69.398499%,29.399109%);fill-opacity:1;" d="M 148.582031 102.296875 C 153.355469 101.753906 157.035156 99.183594 159.277344 94.804688 C 161.550781 90.386719 160.957031 84.121094 157.902344 80.203125 C 154.578125 76.214844 149.757813 74.210938 144.90625 75.1875 C 142.929688 75.507813 141.269531 76.355469 139.710938 77.34375 L 102.574219 102.3125 L 148.574219 102.296875 L 148.582031 102.296875 "/>
<path style=" stroke:none;fill-rule:evenodd;fill:rgb(13.699341%,12.199402%,12.5%);fill-opacity:1;" d="M 127.636719 158.539063 C 125.289063 159.523438 121.804688 160.515625 118.570313 160.515625 C 103.796875 160.515625 91.816406 148.875 91.816406 134.515625 C 91.816406 120.15625 103.796875 108.515625 118.570313 108.515625 C 121.753906 108.515625 125.238281 109.308594 127.636719 110.4375 L 127.636719 120.378906 C 125.03125 118.621094 121.921875 117.601563 118.570313 117.601563 C 109.449219 117.601563 102.054688 125.171875 102.054688 134.515625 C 102.054688 143.855469 109.449219 151.429688 118.570313 151.429688 C 121.902344 151.429688 125.042969 150.417969 127.636719 148.679688 L 127.636719 158.539063 "/>
<path style=" stroke:none;fill-rule:evenodd;fill:rgb(13.699341%,12.199402%,12.5%);fill-opacity:1;" d="M 38.742188 110.214844 L 48.5625 110.214844 L 48.5625 159.890625 L 18.328125 131.550781 L 18.328125 158.804688 L 8.503906 158.804688 L 8.503906 109.136719 L 38.742188 137.476563 L 38.742188 110.214844 "/>
<path style=" stroke:none;fill-rule:evenodd;fill:rgb(13.699341%,12.199402%,12.5%);fill-opacity:1;" d="M 81.476563 132.835938 C 84.476563 130.554688 87.089844 128.378906 87.0625 122.644531 C 87.027344 115.089844 81.074219 110.164063 73.691406 110.164063 L 54.199219 110.164063 L 54.199219 158.851563 L 76.0625 158.851563 C 83.804688 158.851563 89.695313 152.820313 89.695313 144.902344 C 89.695313 136.980469 83.316406 133.523438 81.476563 132.835938 Z M 64.074219 117.527344 L 71.375 117.527344 C 74.792969 117.527344 77.5625 120.359375 77.5625 123.855469 C 77.5625 127.351563 74.792969 130.1875 71.375 130.1875 L 64.074219 130.1875 Z M 72.964844 151.542969 L 64.074219 151.542969 L 64.074219 137.460938 L 72.964844 137.417969 C 76.773438 137.417969 79.863281 140.582031 79.863281 144.480469 C 79.863281 148.382813 76.773438 151.542969 72.964844 151.542969 "/>
<path style=" stroke:none;fill-rule:evenodd;fill:rgb(100%,100%,100%);fill-opacity:1;" d="M 161.964844 110.160156 L 138.332031 138.726563 L 138.332031 151.609375 L 162.597656 151.609375 L 162.597656 159.128906 L 179.027344 159.128906 L 179.027344 151.761719 L 183.160156 151.761719 L 183.160156 138.832031 L 179.027344 138.832031 L 179.027344 110.160156 Z M 156.535156 138.617188 L 162.574219 129.96875 L 162.574219 138.617188 Z M 156.535156 138.617188 "/>
</g>
</svg>
