<svg version="1.1" id="Layer_1" xmlns="http://www.w3.org/2000/svg" xmlns:xlink="http://www.w3.org/1999/xlink" x="0px" y="0px" viewBox="0 0 960 101.8" style="enable-background:new 0 0 960 101.8;" xml:space="preserve">
 <style type="text/css">
  .st0{fill:#05CE78;}
 </style>
 <g>
  <path class="st0" d="M873.2,26.5c0-16.4,8.6-24.9,24.4-24.9h29.1c17.7,0,31.5,13.4,31.5,30.6c0,9.3-3.9,17-10.3,21.9l8.7,13.9
		c2.4,3.7,3.4,7.7,3.4,11.9c0,12.4-9.8,22-22,22c-7.6,0-15-3.8-19.2-10.9l-2.4-4.2c-2.9,8.8-10.8,15-20.9,15
		c-12.3,0-22.4-10.4-22.4-22.9V26.5L873.2,26.5z M866.5,82.6c0,10.8-8.6,19.4-19.1,19.2h-34.8c-15.9,0-24.6-8.4-24.6-24.9V26.6
		c0-16.3,8.6-24.9,24.6-24.9h34.8c10.5,0,19.1,8.6,19.1,19.4c0,9.8-6,16.8-14.6,18.5c4,2.5,6.1,6.7,6.1,12.3c0,5.6-2.3,9.8-6.1,12.3
		C860.4,65.8,866.5,73.1,866.5,82.6L866.5,82.6z M761,79.3c0,12.4-10.4,22.5-24.2,22.5c-13,0-23.5-10.2-23.5-22.5V44.7
		c-11.2-0.7-20.4-9.9-20.4-21.5c0-12.2,9.7-21.5,21.5-21.5h45.4c11.9,0,21.5,9.5,21.5,21.5c0,11.7-9.2,21-20.4,21.5V79.3L761,79.3z
		 M604.4,26.5c0-16.4,8.7-24.9,24.4-24.9h29.1c17.7,0,31.5,13.4,31.5,30.6c0,9.3-3.9,17-10.3,21.9l8.7,13.9
		c2.4,3.7,3.4,7.7,3.4,11.9c0,12.4-9.8,22-22,22c-7.6,0-15-3.8-19.2-10.9l-2.4-4.2c-2.9,8.8-10.8,15-20.9,15
		c-12.3,0-22.4-10.4-22.4-22.9V26.5L604.4,26.5z M549.2,82.8c-5.7,11.8-13.7,17.4-23.5,17.4c-17.6,0-30.3-16.1-22.4-34.2l20.6-47.8
		C529,6.5,536.6,0,549.3,0c12.9,0,20.4,6.5,25.5,18.2L595.4,66c7.7,18.1-4.9,34.2-22.6,34.2C562.9,100.2,554.8,94.5,549.2,82.8
		L549.2,82.8z M490.5,79.3c0,12.4-10.5,22.5-24.1,22.5c-13,0-23.6-10.2-23.6-22.5V44.7c-11.2-0.7-20.4-9.9-20.4-21.5
		c0-12.2,9.7-21.5,21.6-21.5h45.3c11.9,0,21.6,9.5,21.6,21.5c0,11.7-9.2,21-20.4,21.5V79.3L490.5,79.3z M422.4,69.3
		c0,19.9-15.4,32.5-41.3,32.5c-26.4,0-38.8-9-38.8-23.8c0-10.2,7.9-16.8,19.1-16.8h0.2l-6-5.5c-7.5-6.9-12.7-13.7-12.7-23.8
		c0-19.6,14.4-32,39-32c25.1,0,37,8.9,37,23.8c0,8.9-6,14.9-15.1,16.2l6.2,5.5C417.4,52.3,422.4,59.3,422.4,69.3L422.4,69.3z
		 M337.3,77.7c0,12.3-10.3,22.6-22.9,22.4c-7.1,0-14.3-3.3-18.7-9.6l-4.7-6.6c-2.2,9.6-10.6,16.3-21.4,16.3
		c-12.5,0-22.4-10-22.4-22.3V22.3C247.1,10,256.9,0,269.5,0c11,0,19.5,7.1,21.6,16.9l5.2-7.3c4.4-6,11.5-9.5,18.5-9.5
		c12.1,0,22.4,9.5,22.4,21.8c0,4.7-1.3,9.3-4.2,13.1l-10.8,14.8L333,64.6C335.9,68.6,337.3,73.1,337.3,77.7L337.3,77.7z M238.7,72.6
		c0,16.1-13.4,27.5-35,27.5c-28.9,0-50.1-21.4-50.1-50.1c0-28.7,21.2-50.1,50.1-50.1c21.6,0,35,11.4,35,27.5
		c0,10.8-5.3,18.1-15.9,22.6C233.4,54.6,238.7,62,238.7,72.6L238.7,72.6z M121.1,0c13.5,0,24.3,11,24.1,24v52.3
		c0,13-10.6,24-24.3,24c-13.3,0-24.1-10.8-24.1-24V24C96.8,11,107.6,0,121.1,0L121.1,0z M90.2,77.7c0,12.3-10.3,22.6-23,22.4
		c-7.1,0-14.3-3.3-18.7-9.6l-4.7-6.6c-2.2,9.6-10.6,16.3-21.4,16.3C9.9,100.2,0,90.2,0,77.9V22.3C0,10,9.8,0,22.4,0
		c10.9,0,19.5,7.1,21.5,16.9l5.4-7.3c4.4-6,11.4-9.5,18.5-9.5c12.1,0,22.4,9.5,22.4,21.8c0,4.7-1.3,9.3-4.2,13.1L75.2,49.8L86,64.6
		C88.8,68.6,90.2,73.1,90.2,77.7L90.2,77.7z">
  </path>
 </g>
</svg>