<svg version="1.1" id="Layer_1" xmlns:x="ns_extend;" xmlns:i="ns_ai;" xmlns:graph="ns_graphs;" xmlns="http://www.w3.org/2000/svg" xmlns:xlink="http://www.w3.org/1999/xlink" x="0px" y="0px" viewBox="0 0 534 83" style="enable-background:new 0 0 534 83;" xml:space="preserve">
 <style type="text/css">
  .st0{filter:url(#Adobe_OpacityMaskFilter);}
	.st1{fill-rule:evenodd;clip-rule:evenodd;fill:#FFFFFF;}
	.st2{mask:url(#b_1_);fill-rule:evenodd;clip-rule:evenodd;}
 </style>
 <metadata>
  <sfw xmlns="ns_sfw;">
   <slices>
   </slices>
   <sliceSourceBounds bottomLeftOrigin="true" height="83" width="534" x="-142.9" y="-21.8">
   </sliceSourceBounds>
  </sfw>
 </metadata>
 <g>
  <defs>
   <filter id="Adobe_OpacityMaskFilter" filterUnits="userSpaceOnUse" x="0" y="0" width="534" height="83">
    <feColorMatrix type="matrix" values="1 0 0 0 0  0 1 0 0 0  0 0 1 0 0  0 0 0 1 0">
    </feColorMatrix>
   </filter>
  </defs>
  <mask maskUnits="userSpaceOnUse" x="0" y="0" width="534" height="83" id="b_1_">
   <g class="st0">
    <path id="a_1_" class="st1" d="M0,0h534v83H0V0z">
    </path>
   </g>
  </mask>
  <path class="st2" d="M45,13.8h0.9V1.9H0v0.8C5.3,7,6,8.3,6,13v57.3c0,4.7-0.7,5.9-6,10.3v0.8h23.8v-0.8c-5.4-4-6.3-5.6-6.3-10.1
		V42.1h5.2c6.7,0,7.9,0.5,13.7,7.8h0.8V31.2h-0.8c-5.8,7.3-6.9,7.8-13.7,7.8h-5.2V4.8h7.9C28.6,4.8,31.3,5.9,45,13.8L45,13.8z
		 M63.1,47.4H47.2l7.5-23.1c0.3,0.8,0.7,1.7,1.1,2.8L63.1,47.4z M75.6,54.2l-13.8-38H49.3v0.7c1.8,1.6,2.9,2.9,3.8,4.3L42.8,52.6
		c-1.8,5.6-3,7.4-7.7,11.8v0.8h14.5v-0.8c-4-2.4-5.3-4-5.3-6.3c0-1.1,0.3-2.6,1.2-5.2l0.9-2.8H64l1.6,4.5c1,2.9,1.2,4,1.2,5.1
		c0,1.6-1.1,3-4.2,4.8v0.8h20.2v-0.8C78.1,60.4,77.4,59.1,75.6,54.2L75.6,54.2z M106,13.8h0.9V2.3c-4.4-0.8-9.4-1.5-14-1.5
		c-13.3,0-19.8,8.9-19.8,18.3c0,10.9,7.1,17.5,16.1,25c9.8,8.2,15.5,13.2,15.5,22.6c0,7.8-5.2,12.6-12,12.6c-6,0-10.8-2.4-23.4-12.3
		h-1.1L72.9,80c5.6,1.6,11.3,2.4,17.1,2.4c15.1,0,23.9-9.2,23.9-22c0-11.8-6.9-17.8-16.7-25.7c-9-7.3-15.1-13.2-15.1-21.6
		c0-5.5,3.6-9.3,9.3-9.3C95.2,3.8,98,5.3,106,13.8L106,13.8z M164.3,13.8h0.9V1.9h-54.1v11.8h0.9c12.8-8.1,15.3-9.1,18.3-9.1h2.1
		v65.8c0,4.5-0.9,6-6.3,10.1v0.8h24.1v-0.8c-5.4-4-6.3-5.6-6.3-10.1V4.6h2.1C148.9,4.6,151.5,5.7,164.3,13.8L164.3,13.8z
		 M233.3,11.6h0.9V1.5C228.9,0.7,222,0,215.7,0c-28.1,0-44.8,15.7-44.8,41.7c0,25.5,15.9,41.3,43.7,41.3c7.2,0,13.7-1.1,18.9-2.4
		l2-11.3h-0.9c-10.4,8.8-15,10.8-22.6,10.8c-20.8,0-27.7-15.7-27.7-38.9c0-23.6,6.9-38,26.6-38C217.2,3.2,221.7,4.6,233.3,11.6
		L233.3,11.6z M230.6,41.2c0,13.1-1.1,21.8-10.6,21.8c-9.5,0-10.6-8.7-10.6-21.8c0-13.1,1.1-21.8,10.6-21.8
		C229.5,19.4,230.6,28.1,230.6,41.2z M241.8,41.2c0-13.8-8.2-24.2-21.8-24.2s-21.8,10.5-21.8,24.2c0,13.7,8.2,24.2,21.8,24.2
		C233.7,65.4,241.8,54.9,241.8,41.2z M290.5,81.1l23.5,0.1v-0.8c-5.3-4.3-6-5.6-6-10.2V13c0-4.7,0.7-6,6-10.2V2l-16.7-0.1
		l-18.5,58.6L259.9,1.9h-16.9v0.8c3.2,2.8,5.1,4.6,6.5,6.4v55.5c0,6.4-0.8,9-6.7,15.9v0.8h18.9v-0.8c-7.9-6.5-9.1-9.2-9.1-15.9V15.2
		c0.1,0.4,0.3,0.7,0.4,1.2l21.2,65.5h0.9l21.3-67.5v55.7c0,4.7-0.7,6-6,10.2C290.5,80.4,290.5,81.1,290.5,81.1z M358.7,26.2
		c0,14.9-3.5,21.1-14.9,21.1h-6.5V4.8h4.6C354.4,4.8,358.7,10.2,358.7,26.2z M370.9,25.7c0-17.9-12.5-23.7-29.4-23.7h-21.8v0.8
		c5.3,4.3,6,5.6,6,10.3v57.3c0,4.7-0.7,5.9-6,10.3v0.8h23.8v-0.8c-5.4-4-6.3-5.6-6.3-10.1V50.2h6.2
		C358.4,50.2,370.9,43.8,370.9,25.7z M400,52.3h-22.5l11.1-40c0.2,0.7,0.5,1.4,0.7,2.2L400,52.3L400,52.3z M534,2.7V1.9h-17.9v0.8
		c4.8,4.3,6.3,6.3,6.3,9.5c0,1.7-0.4,3-1.7,6l-10.3,24.1l-13.5-29.8c-1.1-2.3-1.4-3.6-1.4-4.8c0-2.1,1.2-3.3,4.4-5V1.9h-39.7v0.8
		c8.9,6.6,10.1,9.1,10.1,16.3v45.6L437.2,1.9h-16.5v0.8c3.4,2.9,5.4,4.8,7.1,7.1v55c0,6-0.7,8.6-5.4,15.7c-3.7-4.6-4.5-6.8-6.3-13.3
		L397.4,1.9h-16.1v0.8c2.5,2.2,4.1,3.8,5.3,5.6l-15.6,56c-2.2,8.1-4,10.6-10,16.2v0.8h19.2v-0.8c-5.5-4.2-7.2-6.3-7.2-9.9
		c0-1.5,0.3-3.5,1.1-6.3l2.5-9h24.1l3.4,11.8c1.1,3.7,1.5,5.3,1.5,6.7c0,2-0.9,3.4-4.9,6.6v0.8H441v-0.8
		c-8.9-6.5-10.1-9.1-10.1-15.7V14.7c0.1,0.1,0.1,0.2,0.2,0.4l35,66.2h7.3V19c0-6.6,0.7-9.2,5.2-16.3c3,3.6,4.9,6.6,7.3,12.1
		l14.3,31.6v24c0,4.5-0.9,6-6.3,10v0.8H518v-0.8c-5.4-4-6.3-5.6-6.3-10.1V46.1l11.9-27.7C526.1,12.5,528,9.7,534,2.7L534,2.7z">
  </path>
 </g>
</svg>