<svg version="1.1" id="Layer_1" xmlns:x="ns_extend;" xmlns:i="ns_ai;" xmlns:graph="ns_graphs;" xmlns="http://www.w3.org/2000/svg" xmlns:xlink="http://www.w3.org/1999/xlink" x="0px" y="0px" viewBox="0 0 168 56" style="enable-background:new 0 0 168 56;" xml:space="preserve">
 <style type="text/css">
  .st0{fill:#001E63;}
 </style>
 <metadata>
  <sfw xmlns="ns_sfw;">
   <slices>
   </slices>
   <sliceSourceBounds bottomLeftOrigin="true" height="56" width="168" x="74.1" y="-214.1">
   </sliceSourceBounds>
  </sfw>
 </metadata>
 <g>
  <path class="st0" d="M167.8,14c-0.5,1.7-0.9,3.4-1.4,5.2c-0.1,0.5-0.3,0.6-0.8,0.6c-3,0-6,0-9.1,0c-1.3,0-2.4,0.5-3,1.7
		c-0.4,0.7-0.4,1.4,0.2,2c0.6,0.6,1.2,1.1,1.9,1.5c1.3,0.8,2.6,1.4,3.9,2.2c1.2,0.7,2.3,1.5,3.3,2.5c1.8,1.7,2.3,4,2,6.4
		c-0.2,1.7-0.8,3.3-1.6,4.8c-2,3.6-5.1,5.5-9.1,5.7c-4.1,0.2-8.2,0.1-12.3,0.1c-0.1,0-0.2,0-0.5-0.1c0.2-0.7,0.4-1.4,0.5-2
		c0.4-1.4,0.7-2.7,1.1-4.1c0.1-0.5,0.3-0.6,0.8-0.6c3,0,6,0,9,0c0.9,0,1.8-0.1,2.7-0.3c1.2-0.3,1.8-1.2,2-2.4c0.2-1-0.3-1.7-1-2.2
		c-0.9-0.7-1.9-1.3-2.9-1.9c-1.4-0.9-2.9-1.7-4.2-2.6c-1.7-1.2-3.1-2.8-3.4-5c-0.1-1.1-0.1-2.2,0.1-3.2c1.3-6.3,6.7-9,11.2-9.1
		c3.4-0.1,6.9,0,10.3,0c0.1,0,0.2,0,0.4,0.1C167.9,13.4,167.8,13.7,167.8,14L167.8,14z M144.7,19.2c-0.1,0.4-0.3,0.5-0.7,0.5
		c-1.9,0-3.9,0-5.8,0.2c-6.1,0.9-10.9,6.2-11.3,12.2c-0.3,4.5,2.5,7.6,7,7.6c1.7,0,3.4,0,5.2,0h0.8c-0.2,0.9-0.4,1.6-0.6,2.3
		c-0.3,1.3-0.7,2.5-1,3.8c-0.1,0.4-0.3,0.6-0.7,0.6c-2.3,0-4.7,0.1-7-0.1C124.3,46,120,42,119.4,36c-0.4-4.2,0.8-8.1,2.8-11.7
		c3.5-6.3,8.9-10,16.1-11c2.5-0.3,5-0.2,7.6-0.3c0.1,0,0.2,0,0.3,0.1l-0.5,1.9C145.4,16.4,145,17.8,144.7,19.2L144.7,19.2z
		 M113.7,45.9c-0.1,0.5-0.3,0.7-0.9,0.7c-2,0-3.9,0-5.9,0c-0.2,0-0.4,0-0.7,0l0.7-2.6l7.7-29.4C115,13,115,13,116.4,13
		c1.7,0,3.4,0,5,0c0.2,0,0.5,0,0.8,0c-0.5,2-1,3.8-1.5,5.7C118.4,27.8,116.1,36.8,113.7,45.9L113.7,45.9z M107.9,19.1
		c-0.1,0.5-0.3,0.6-0.8,0.6c-3,0-6,0-9,0c-1.3,0-2.3,0.5-2.9,1.6c-0.5,0.8-0.4,1.5,0.2,2.1c0.6,0.6,1.3,1.1,2.1,1.6
		c1.4,0.9,3,1.7,4.4,2.5c0.6,0.3,1.1,0.7,1.6,1.2c2.4,1.9,3.5,4.5,2.9,7.6c-0.3,2-1.1,3.9-2.2,5.6c-1.8,2.6-4.4,4.1-7.6,4.5
		c-1.4,0.2-2.8,0.2-4.2,0.2c-2.9,0-5.8,0-8.6,0c-0.3,0-0.5,0-0.9,0c0.1-0.5,0.2-1,0.3-1.4c0.4-1.5,0.8-3,1.2-4.5
		c0.1-0.6,0.4-0.8,1.1-0.8c3,0,6,0,8.9,0c0.7,0,1.5-0.1,2.2-0.2c0.9-0.2,1.6-0.6,2-1.5c0.6-1.3,0.5-2.3-0.6-3.2
		c-1-0.8-2.1-1.4-3.1-2.1c-1.4-0.9-2.9-1.7-4.3-2.7c-1.9-1.4-3.1-3.2-3.3-5.6c-0.1-2,0.4-3.9,1.4-5.6c2-3.6,5.2-5.4,9.2-5.9
		c0.6-0.1,1.3-0.1,1.9-0.1c3,0,6,0,8.9,0h0.7c-0.4,1.6-0.8,3.2-1.2,4.7C108.2,18.2,108,18.6,107.9,19.1L107.9,19.1z M80.5,41.3
		c-0.4,1.6-0.9,3.2-1.3,4.8c-0.1,0.4-0.3,0.5-0.6,0.5c-4.7,0-9.5,0-14.2-0.1c-1.6,0-3.2-0.5-4.6-1.3c-3.1-1.7-4.7-5.2-3.9-9
		c0.6-3.1,2.3-5.4,4.8-7.3c3.2-2.5,6.9-3.9,11-3.8c1.7,0,3.4,0,5,0c0.5,0,0.8-0.2,0.8-0.7c0.1-0.8,0.4-1.6,0.5-2.4
		c0.1-1.2-0.6-2-1.8-2.2c-0.5-0.1-1-0.1-1.5-0.1c-2.9,0-5.9,0-8.8,0h-0.8c0.6-2.2,1.2-4.3,1.7-6.4c0-0.2,0.4-0.3,0.6-0.3
		c2.5,0,5.1,0,7.7,0c0.9,0,1.9-0.1,2.9,0c3.1,0.3,5.6,1.6,7,4.5c0.9,1.9,0.8,3.9,0.3,5.9C83.7,29.4,82.1,35.3,80.5,41.3L80.5,41.3z
		 M75.3,31.8c-2,0-4-0.1-6,0c-2.4,0.1-4.7,1.9-5.3,4.1c-0.5,2,0.6,3.7,2.6,3.8c2.1,0.1,4.3,0,6.4,0.1c0.4,0,0.5-0.2,0.6-0.5
		c0.6-2.3,1.2-4.7,1.9-7c0-0.1,0-0.3,0.1-0.5C75.4,31.8,75.3,31.8,75.3,31.8L75.3,31.8z M42.2,36c-4.5,5.5-9.6,10.4-15.6,14.4
		c-3.6,2.3-7.3,4.3-11.5,5.2c-3,0.6-6,0.7-8.9-0.3c-3.8-1.4-6.1-4.6-6.2-8.6c-0.1-4,1.2-7.5,3.2-10.9c2.5-4.1,5.7-7.5,9.4-10.4
		c4.4-3.5,9.1-6.3,14.5-8c1.7-0.5,3.5-0.9,5.4-1c1.2-0.1,2.5,0.1,3.7,0.5c2.7,0.8,4,3.4,3.3,6.1c0,0.1-0.1,0.3-0.1,0.5l0.1,0.1
		c0.5-0.6,1-1.2,1.4-1.9c2-2.8,3.8-5.7,4.7-9.1c0.3-1.2,0.6-2.5,0.4-3.7c-0.4-2.4-1.9-3.8-4.1-4.5C39.6,3.4,37.3,3.6,35,4
		c-4.4,0.8-8.4,2.5-12.3,4.7c-1.6,0.9-3.2,1.9-4.8,2.9L17.5,11c0.6-0.5,1.1-0.9,1.7-1.4c5.4-4.1,11.2-7.2,17.8-8.8
		c3.3-0.8,6.6-1.2,9.9-0.4c4.4,1,7.3,4.5,7.6,9c0.2,3.6-0.7,6.9-2.1,10.1C49.9,25.6,46.3,31,42.2,36L42.2,36z M33.7,19.8
		c-1.4-0.2-2.7,0.1-4.1,0.5c-5.5,1.7-9.9,5.1-13.5,9.4c-1.2,1.4-2.2,3-2.7,4.8c-0.8,3,1,5.3,4,5.3c1.6,0,3-0.4,4.4-1.1
		c5.1-2.4,9.3-6,13-10.2c1-1.1,1.6-2.5,2-4C37.6,21.9,36.4,20.1,33.7,19.8L33.7,19.8z M33.7,19.8">
  </path>
 </g>
</svg>