<svg enable-background="new 0 0 185.386 18.632" height="18.632" id="Layer_1" overflow="visible" version="1.1" viewBox="0 0 185.386 18.632" width="185.386" xml:space="preserve" xmlns="http://www.w3.org/2000/svg" xmlns:xlink="http://www.w3.org/1999/xlink">
<g>
<polygon clip-rule="evenodd" fill="#FFFFFF" fill-rule="evenodd" points="0,18.632 19.14,18.632 19.14,0 0,0 0,18.632 	"></polygon>
<path clip-rule="evenodd" d="M38.933,15.153c0,0.942,0.073,1.595,0.218,1.885
		c0.145,0.218,0.507,0.362,1.087,0.362l1.16,0.072v0.726c-1.305,0-2.465-0.072-3.625-0.072c-1.232,0-2.393,0.072-3.697,0.072v-0.726
		l1.232-0.072c0.58,0,0.87-0.145,1.015-0.362c0.217-0.29,0.217-0.942,0.217-1.885V9.57c-0.29,0-0.942-0.072-2.03-0.072h-5.873
		c-1.087,0-1.74,0.072-2.103,0.072v5.583c0,0.942,0.073,1.595,0.291,1.885C26.97,17.255,27.26,17.4,27.84,17.4l1.232,0.072v0.726
		c-1.305,0-2.538-0.072-3.625-0.072c-1.232,0-2.465,0.072-3.698,0.072v-0.726l1.161-0.072c0.58,0,0.942-0.145,1.087-0.362
		c0.146-0.29,0.218-0.942,0.218-1.885V3.915c0-0.942-0.072-1.595-0.218-1.885c-0.145-0.218-0.507-0.362-1.087-0.362L21.75,1.595
		V0.87c1.233,0,2.465,0.073,3.698,0.073c1.087,0,2.32-0.073,3.625-0.073v0.725L27.84,1.667c-0.58,0-0.87,0.145-1.015,0.362
		c-0.218,0.29-0.291,0.943-0.291,1.885V8.41c0.363,0,1.015,0,2.103,0h5.873c1.087,0,1.74,0,2.03,0V3.915
		c0-0.942,0-1.595-0.217-1.885c-0.145-0.218-0.435-0.362-1.015-0.362l-1.232-0.073V0.87c1.305,0,2.465,0.073,3.697,0.073
		c1.16,0,2.32-0.073,3.625-0.073v0.725l-1.16,0.073c-0.58,0-0.943,0.145-1.087,0.362c-0.145,0.29-0.218,0.943-0.218,1.885V15.153
		L38.933,15.153z" fill-rule="evenodd"></path>
<path clip-rule="evenodd" d="M44.081,6.743c0-0.725,0-1.232-0.145-1.45c-0.146-0.218-0.363-0.29-0.871-0.29
		L42.124,4.93V4.277c0.58,0,1.087,0.072,1.667,0.072c0.58,0,1.16,0,1.74,0c1.74,0,3.553-0.072,4.713-0.072
		c0.87,0,1.813,0.072,2.538,0.072c-0.218,0.87-0.291,2.03-0.291,3.045h-0.725V6.09c0-0.217,0-0.435-0.146-0.507
		c-1.087-0.436-2.682-0.436-3.915-0.436c-0.58,0-1.16,0-1.74,0.146v5.365c0.652,0,1.377,0.072,2.32,0.072
		c1.233,0,1.958-0.072,2.175-0.218c0.072-0.072,0.145-0.29,0.145-0.507l0.072-1.087h0.653c-0.073,0.87-0.073,1.595-0.073,2.32
		c0,0.725,0,1.522,0.073,2.247h-0.653l-0.072-1.16c0-0.29-0.073-0.435-0.145-0.507c-0.217-0.218-0.942-0.29-2.175-0.29
		c-0.942,0-1.667,0-2.32,0.072v5.583c0.58,0.145,1.16,0.217,1.74,0.217c1.595,0,3.625-0.072,3.987-0.29
		c0.363-0.145,0.58-1.015,0.725-2.247h0.725c-0.217,0.942-0.362,2.247-0.362,3.263c-0.871,0.072-2.465,0.145-3.916,0.072
		c-1.522,0-3.117-0.072-4.35-0.072c-0.797,0-1.45,0.072-2.175,0.072v-0.58l0.725-0.072c0.508,0,0.725-0.073,0.871-0.29
		c0.145-0.218,0.145-0.725,0.145-1.522V6.743L44.081,6.743z" fill-rule="evenodd"></path>
<path clip-rule="evenodd" d="M55.898,6.743c0-0.725,0-1.232-0.145-1.45s-0.362-0.29-0.87-0.29l-0.87-0.073
		V4.277c0.87,0.072,1.667,0.072,2.392,0.072c0.363,0,0.726,0,1.087-0.072l9.57,11.818h0.073V6.743c0-0.725-0.073-1.232-0.218-1.45
		c-0.072-0.218-0.362-0.29-0.797-0.29L65.178,4.93V4.277c0.798,0.072,1.668,0.072,2.32,0.072c0.798,0,1.522,0,2.465-0.072V4.93
		l-0.943,0.073c-0.435,0-0.725,0.072-0.797,0.29c-0.145,0.218-0.217,0.725-0.217,1.45v11.093c0,0.218,0.072,0.508,0.072,0.725
		l-1.813-0.29L56.841,6.525l0,0v9.208c0,0.798,0,1.305,0.145,1.522c0.146,0.217,0.363,0.29,0.87,0.29l0.87,0.072v0.58
		c-0.87,0-1.595-0.072-2.393-0.072c-0.725,0-1.522,0.072-2.32,0.072v-0.58l0.87-0.072c0.508,0,0.725-0.073,0.87-0.29
		c0.145-0.218,0.145-0.725,0.145-1.522V6.743L55.898,6.743z" fill-rule="evenodd"></path>
<path clip-rule="evenodd" d="M74.386,15.733c0,0.798,0,1.305,0.145,1.522c0.145,0.217,0.363,0.29,0.87,0.29
		l0.942,0.072v0.58c-1.015,0-1.958-0.072-2.9-0.072c-0.943,0-1.885,0.072-2.973,0.072v-0.58l1.015-0.072
		c0.435,0,0.653-0.073,0.798-0.29c0.145-0.218,0.217-0.725,0.217-1.522v-8.99c0-0.725-0.072-1.232-0.217-1.45
		c-0.146-0.218-0.363-0.29-0.798-0.29l-0.87-0.073V4.277c1.087,0.072,2.248,0.072,3.407,0.072c1.161,0,2.32,0,3.48-0.072
		c3.263,0,4.06,1.595,4.06,3.045c0,2.175-1.958,3.479-3.915,3.843l4.567,5.944c0.29,0.362,0.726,0.436,1.232,0.508v0.58
		c-0.507,0-1.015-0.072-1.45-0.072s-0.87,0.072-1.377,0.072c-0.218-0.362-0.58-0.726-0.798-1.088l-3.697-4.93
		c-0.29-0.435-0.725-0.798-1.015-1.232l0.073-0.218c0.58,0,1.16,0,1.812-0.072c1.377-0.29,2.61-1.377,2.61-2.828
		c0-2.175-1.667-2.755-3.19-2.755c-0.87,0-1.45,0.072-2.03,0.218V15.733L74.386,15.733z" fill-rule="evenodd"></path>
<path clip-rule="evenodd" d="M89.322,11.31l2.102-3.262c0.798-1.233,1.451-2.465,2.175-3.771h1.595v0.29
		c-1.739,1.958-4.132,5.292-4.93,7.105c-0.29,0.508-0.29,1.015-0.29,1.522v2.538c0,0.798,0,1.305,0.145,1.522
		c0.145,0.217,0.362,0.29,0.87,0.29l0.943,0.072v0.58c-1.015,0-1.958-0.072-2.9-0.072c-0.942,0-1.885,0.072-2.972,0.072v-0.58
		l1.015-0.072c0.435,0,0.652-0.073,0.797-0.29c0.145-0.218,0.218-0.725,0.218-1.522v-2.828c0-0.29-0.073-0.58-0.218-0.798
		l-2.465-4.35c-1.015-1.74-2.103-2.538-2.538-2.538l-0.58-0.073v-0.58l2.248-0.507c0.435-0.073,0.725,0.362,1.087,0.725
		c0.29,0.435,0.58,0.87,0.87,1.305L89.322,11.31L89.322,11.31z" fill-rule="evenodd"></path>
<path clip-rule="evenodd" d="M109.549,5.002l-0.146-1.45c-0.072-0.652-0.145-0.87-1.087-1.45
		c-0.725-0.435-1.74-0.652-2.755-0.652c-1.74,0-3.697,1.232-3.697,3.697c0,1.668,1.015,2.755,4.132,3.045
		c3.553,0.435,5.801,1.305,5.801,4.132c0,4.278-3.843,6.308-7.613,6.308c-1.74,0-3.407-0.507-4.277-0.942
		c0.218-1.305,0.218-2.61,0.218-3.843h0.797l0.218,1.74c0.072,1.016,2.103,1.958,4.061,1.958c2.247,0,4.495-1.378,4.495-3.843
		c0-2.393-1.886-3.045-4.423-3.335c-3.915-0.435-5.511-1.668-5.511-4.278c0-3.915,3.408-5.655,6.453-5.655
		c1.958,0,3.48,0.652,4.495,1.015c-0.218,1.305-0.362,2.393-0.362,3.553H109.549L109.549,5.002z" fill-rule="evenodd"></path>
<path clip-rule="evenodd" d="M124.847,17.472c-1.16,0.726-3.117,1.088-4.351,1.088
		c-4.785,0-8.047-2.755-8.047-7.25c0-2.32,0.942-4.132,2.465-5.438c1.45-1.233,3.553-1.885,5.8-1.885
		c1.813,0,3.625,0.435,4.567,0.797c-0.145,0.943-0.362,2.03-0.362,3.045h-0.58V6.38c0-0.58-0.869-0.87-1.74-1.233
		c-0.652-0.217-1.522-0.362-2.247-0.362c-3.77,0-5.728,2.755-5.728,6.163c0,3.987,2.61,6.524,6.525,6.524
		c1.449,0,3.189-0.507,4.06-1.159l0.218,0.145L124.847,17.472L124.847,17.472z" fill-rule="evenodd"></path>
<path clip-rule="evenodd" d="M140.217,15.733c0,0.798,0,1.305,0.146,1.522c0.145,0.217,0.362,0.29,0.87,0.29
		l0.942,0.072v0.58c-1.016,0-1.958-0.072-2.9-0.072c-1.015,0-1.957,0.072-2.973,0.072v-0.58l0.942-0.072
		c0.508,0,0.726-0.073,0.87-0.29c0.146-0.218,0.146-0.725,0.146-1.522V11.31c-0.218,0-0.726-0.072-1.596-0.072h-4.713
		c-0.869,0-1.449,0.072-1.667,0.072v4.423c0,0.798,0.072,1.305,0.218,1.522c0.072,0.217,0.29,0.29,0.797,0.29l0.943,0.072v0.58
		c-1.016,0-1.958-0.072-2.9-0.072s-1.885,0.072-2.973,0.072v-0.58l1.015-0.072c0.436,0,0.726-0.073,0.798-0.29
		c0.146-0.218,0.218-0.725,0.218-1.522v-8.99c0-0.725-0.072-1.232-0.218-1.45c-0.072-0.218-0.362-0.29-0.798-0.29L126.37,4.93V4.277
		c1.088,0.072,2.03,0.072,2.973,0.072s1.885,0,2.9-0.072V4.93l-0.943,0.073c-0.507,0-0.725,0.072-0.797,0.29
		c-0.146,0.218-0.218,0.725-0.218,1.45v3.625c0.218,0,0.798,0,1.667,0h4.713c0.87,0,1.378,0,1.596,0V6.743
		c0-0.725,0-1.232-0.146-1.45c-0.145-0.218-0.362-0.29-0.87-0.29l-0.942-0.073V4.277c1.016,0.072,1.958,0.072,2.973,0.072
		c0.942,0,1.885,0,2.9-0.072V4.93l-0.942,0.073c-0.508,0-0.726,0.072-0.87,0.29c-0.146,0.218-0.146,0.725-0.146,1.45V15.733
		L140.217,15.733z" fill-rule="evenodd"></path>
<path clip-rule="evenodd" d="M144.786,6.743c0-0.725,0-1.232-0.146-1.45s-0.362-0.29-0.87-0.29l-0.942-0.073
		V4.277c0.58,0,1.087,0.072,1.667,0.072s1.16,0,1.668,0c1.74,0,3.625-0.072,4.785-0.072c0.87,0,1.74,0.072,2.537,0.072
		c-0.217,0.87-0.29,2.03-0.29,3.045h-0.725V6.09c0-0.217,0-0.435-0.145-0.507c-1.088-0.436-2.683-0.436-3.916-0.436
		c-0.58,0-1.159,0-1.739,0.146v5.365c0.652,0,1.377,0.072,2.319,0.072c1.232,0,1.958-0.072,2.176-0.218
		c0.072-0.072,0.145-0.29,0.145-0.507l0.072-1.087h0.58c0,0.87,0,1.595,0,2.32c0,0.725,0,1.522,0,2.247h-0.58l-0.072-1.16
		c0-0.29-0.072-0.435-0.145-0.507c-0.218-0.218-0.943-0.29-2.176-0.29c-0.942,0-1.667,0-2.319,0.072v5.583
		c0.58,0.145,1.159,0.217,1.739,0.217c1.596,0,3.625-0.072,3.988-0.29c0.29-0.145,0.58-1.015,0.725-2.247h0.726
		c-0.218,0.942-0.363,2.247-0.363,3.263c-0.869,0.072-2.465,0.145-3.915,0.072c-1.522,0-3.117-0.072-4.35-0.072
		c-0.798,0-1.45,0.072-2.175,0.072v-0.58l0.725-0.072c0.508,0,0.725-0.073,0.87-0.29c0.146-0.218,0.146-0.725,0.146-1.522V6.743
		L144.786,6.743z" fill-rule="evenodd"></path>
<path clip-rule="evenodd" d="M158.706,15.733c0,0.798,0,1.305,0.145,1.522c0.146,0.217,0.362,0.29,0.87,0.29
		l0.942,0.072v0.58c-1.015,0-1.957-0.072-2.9-0.072c-1.015,0-1.957,0.072-2.973,0.072v-0.58l0.943-0.072
		c0.508,0,0.725-0.073,0.87-0.29c0.145-0.218,0.145-0.725,0.145-1.522v-8.99c0-0.725,0-1.232-0.145-1.45
		c-0.146-0.218-0.362-0.29-0.87-0.29L154.79,4.93V4.277c1.016,0.072,1.958,0.072,2.973,0.072c0.943,0,1.886,0,2.9-0.072V4.93
		l-0.942,0.073c-0.508,0-0.725,0.072-0.87,0.29c-0.145,0.218-0.145,0.725-0.145,1.45V15.733L158.706,15.733z" fill-rule="evenodd"></path>
<path clip-rule="evenodd" d="M163.127,6.743c0-0.725-0.072-1.232-0.218-1.45
		c-0.071-0.218-0.361-0.29-0.797-0.29L161.17,4.93V4.277c0.942,0.072,1.739,0.072,2.465,0.072c0.362,0,0.652,0,1.015-0.072
		l9.57,11.818h0.073V6.743c0-0.725,0-1.232-0.146-1.45c-0.145-0.218-0.362-0.29-0.87-0.29l-0.87-0.073V4.277
		c0.798,0.072,1.596,0.072,2.32,0.072c0.798,0,1.522,0,2.393-0.072V4.93l-0.87,0.073c-0.508,0-0.725,0.072-0.87,0.29
		c-0.145,0.218-0.145,0.725-0.145,1.45v11.093c0,0.218,0,0.508,0.072,0.725l-1.813-0.29l-9.425-11.745h-0.073v9.208
		c0,0.798,0.073,1.305,0.218,1.522c0.072,0.217,0.362,0.29,0.798,0.29l0.942,0.072v0.58c-0.942,0-1.668-0.072-2.465-0.072
		c-0.652,0-1.522,0.072-2.32,0.072v-0.58l0.942-0.072c0.436,0,0.726-0.073,0.797-0.29c0.146-0.218,0.218-0.725,0.218-1.522V6.743
		L163.127,6.743z" fill-rule="evenodd"></path>
<path clip-rule="evenodd" d="M181.688,4.06c1.813,0,3.263,1.377,3.263,3.118c0,1.812-1.45,3.19-3.263,3.19
		c-1.74,0-3.117-1.378-3.117-3.118C178.571,5.438,179.948,4.06,181.688,4.06L181.688,4.06z M181.688,3.625
		c-1.957,0-3.553,1.595-3.553,3.625c0,1.958,1.596,3.552,3.553,3.552c2.03,0,3.698-1.595,3.698-3.625
		C185.386,5.22,183.718,3.625,181.688,3.625L181.688,3.625z M180.021,5.075v0.218h0.218c0.145,0,0.289,0,0.289,0.29v3.045
		c0,0.29-0.072,0.29-0.289,0.29h-0.146v0.145h1.522V8.917h-0.218c-0.29,0-0.29-0.145-0.29-0.362V7.25h0.146
		c0.218,0,0.507,0,0.652,0.145s0.362,0.58,0.435,0.797c0.072,0.218,0.218,0.653,0.436,0.797c0.145,0.145,0.362,0.073,0.58,0.073
		h0.29V8.917c-0.218,0-0.29,0-0.436-0.145c-0.072-0.073-0.218-0.435-0.29-0.58c-0.145-0.362-0.435-1.015-0.869-1.015l0,0
		c0.579-0.073,1.087-0.435,1.087-1.088c0-0.87-0.87-1.015-1.522-1.015H180.021L180.021,5.075z M181.108,5.728
		c0-0.217-0.072-0.435,0.29-0.435h0.29c0.508,0,0.942,0.29,0.942,0.87c0,0.725-0.652,0.87-1.232,0.87h-0.29V5.728L181.108,5.728z" fill-rule="evenodd"></path>
<path clip-rule="evenodd" d="M18.778,1.812V0.507H0.435v13.92c2.61,0,5.365-1.667,8.193-6.017
		C11.383,3.987,15.515,1.812,18.778,1.812L18.778,1.812z" fill="#E92E29" fill-rule="evenodd"></path>
<path clip-rule="evenodd" d="M0.435,16.965v1.305h18.343V4.35c-2.538,0-5.365,1.668-8.12,6.09
		C7.83,14.791,3.77,16.965,0.435,16.965L0.435,16.965z" fill="#007CC1" fill-rule="evenodd"></path>
</g>
</svg>